<svg width="32" height="32" viewBox="0 0 32 32" fill="none" xmlns="http://www.w3.org/2000/svg">
<g id="bicycle 1">
<path id="Vector" d="M24.25 28C23.1128 28 22.0011 27.6628 21.0555 27.031C20.1099 26.3991 19.3729 25.5011 18.9377 24.4504C18.5025 23.3998 18.3886 22.2436 18.6105 21.1282C18.8324 20.0128 19.38 18.9883 20.1841 18.1841C20.9883 17.38 22.0128 16.8324 23.1282 16.6105C24.2436 16.3886 25.3998 16.5025 26.4504 16.9377C27.5011 17.3729 28.3991 18.1099 29.031 19.0555C29.6628 20.0011 30 21.1128 30 22.25C29.9983 23.7745 29.392 25.2361 28.314 26.314C27.2361 27.392 25.7745 27.9983 24.25 28ZM7.75 28C6.61276 28 5.50106 27.6628 4.55547 27.031C3.60989 26.3991 2.8729 25.5011 2.4377 24.4504C2.00249 23.3998 1.88862 22.2436 2.11049 21.1282C2.33235 20.0128 2.87999 18.9883 3.68414 18.1841C4.48829 17.38 5.51284 16.8324 6.62823 16.6105C7.74362 16.3886 8.89976 16.5025 9.95043 16.9377C11.0011 17.3729 11.8991 18.1099 12.531 19.0555C13.1628 20.0011 13.5 21.1128 13.5 22.25C13.4983 23.7745 12.892 25.2361 11.814 26.314C10.7361 27.392 9.27449 27.9983 7.75 28Z" fill="#1DA0F1"/>
<path id="Vector_2" d="M22.9719 12.0004H20.2369C20.192 12.0004 20.148 11.9883 20.1094 11.9654C20.0708 11.9426 20.039 11.9097 20.0175 11.8704L18.0337 8.23474C17.894 7.96456 17.6925 7.73109 17.4458 7.55322C17.199 7.37536 16.9138 7.2581 16.6133 7.21093C16.3128 7.16377 16.0054 7.18802 15.716 7.28174C15.4266 7.37546 15.1633 7.536 14.9475 7.75037L10.5813 12.1504C10.2144 12.5248 10.0062 13.0263 10 13.5504C10 14.6379 10.7875 15.0254 11.1562 15.2441C12.9375 16.2704 14.1919 17.021 14.88 17.4379C14.9166 17.4601 14.9468 17.4914 14.9678 17.5288C14.9889 17.5661 14.9999 17.6082 15 17.651V21.971C15 22.5091 15.4137 22.971 15.9519 22.9979C16.087 23.0044 16.222 22.9834 16.3488 22.9362C16.4755 22.8891 16.5914 22.8167 16.6894 22.7234C16.7874 22.6302 16.8654 22.518 16.9188 22.3937C16.9722 22.2694 16.9998 22.1356 17 22.0004V16.6254C17.0001 16.4666 16.9624 16.3101 16.89 16.1688C16.8176 16.0276 16.7126 15.9055 16.5837 15.8129L14.2712 14.1497C14.2422 14.129 14.218 14.1022 14.2002 14.0713C14.1823 14.0404 14.1713 14.006 14.1679 13.9705C14.1645 13.935 14.1687 13.8991 14.1802 13.8653C14.1918 13.8316 14.2105 13.8007 14.235 13.7747L16.86 10.9754C16.8869 10.9466 16.9203 10.9245 16.9573 10.9111C16.9944 10.8976 17.0341 10.8931 17.0732 10.8979C17.1123 10.9027 17.1497 10.9167 17.1824 10.9388C17.2151 10.9608 17.2421 10.9903 17.2612 11.0247L18.625 13.486C18.7117 13.642 18.8385 13.772 18.9924 13.8624C19.1463 13.9529 19.3215 14.0005 19.5 14.0004H23C23.1355 14.0005 23.2696 13.9732 23.3941 13.9199C23.5187 13.8667 23.6312 13.7887 23.7247 13.6907C23.8182 13.5927 23.8908 13.4767 23.9381 13.3497C23.9855 13.2228 24.0065 13.0876 24 12.9522C23.9737 12.4141 23.51 12.0004 22.9719 12.0004Z" fill="#213947"/>
<path id="Vector_3" d="M20.7679 7.84909C20.5244 7.94966 20.2634 8.00098 20 8.00006C19.7373 7.99924 19.4774 7.9467 19.2351 7.84543C18.9928 7.74416 18.7727 7.59615 18.5876 7.40986C18.4025 7.22356 18.2558 7.00262 18.1561 6.75966C18.0563 6.51669 18.0054 6.25646 18.0062 5.99381C18.0071 5.73117 18.0596 5.47126 18.1609 5.22892C18.2621 4.98658 18.4101 4.76657 18.5964 4.58143C18.7827 4.39629 19.0037 4.24966 19.2466 4.14991C19.4896 4.05016 19.7498 3.99924 20.0125 4.00006C20.2746 3.99797 20.5345 4.04816 20.777 4.14769C21.0195 4.24722 21.2397 4.3941 21.4247 4.57974C21.6098 4.76538 21.756 4.98605 21.8548 5.22885C21.9535 5.47165 22.0029 5.73171 22 5.99381C22.0017 6.25724 21.9512 6.51839 21.8514 6.76217C21.7516 7.00596 21.6044 7.22754 21.4185 7.4141C21.2325 7.60066 21.0114 7.74851 20.7679 7.84909Z" fill="#213947"/>
</g>
</svg>
