<svg width="50" height="25" viewBox="0 0 50 25" fill="none" xmlns="http://www.w3.org/2000/svg">
<g id="Frame 279">
<g id="Group 1">
<path id="Vector" d="M19.2557 13.7978C19.262 13.902 19.262 14.0066 19.2557 14.1108C19.2576 14.9978 19.1194 15.8796 18.8464 16.7235L20.7366 18.4933C21.1144 17.6744 21.3777 16.8074 21.5192 15.9168L19.2557 13.7978Z" fill="#1DA0F1"/>
<path id="Vector_2" d="M13.3561 8.96995C12.5757 8.57717 11.7134 8.37496 10.8398 8.37997C9.8396 8.37936 8.85665 8.64054 7.98866 9.13753C7.12066 9.63452 6.39783 10.35 5.89205 11.2129C5.38627 12.0758 5.11515 13.0561 5.10561 14.0562C5.09606 15.0564 5.34845 16.0416 5.83767 16.914C6.32689 17.7864 7.03588 18.5156 7.89423 19.0291C8.75258 19.5426 9.73035 19.8224 10.7304 19.8409C11.7304 19.8594 12.7179 19.6158 13.5946 19.1344C14.4714 18.653 15.2069 17.9506 15.728 17.0968C16.2029 16.3334 16.484 15.4654 16.5467 14.5685C16.5586 14.4202 16.5586 14.2712 16.5467 14.123C16.5511 13.0514 16.2542 12.0001 15.6901 11.089C15.126 10.178 14.3173 9.4437 13.3561 8.96995ZM13.91 15.3751C13.6771 15.9288 13.2984 16.4091 12.8144 16.7648C12.3303 17.1204 11.7589 17.3382 11.1609 17.395C10.5629 17.4517 9.96066 17.3454 9.41831 17.0871C8.87596 16.8289 8.41371 16.4285 8.08081 15.9285C7.7479 15.4284 7.55681 14.8475 7.52776 14.2476C7.4987 13.6476 7.63279 13.0509 7.91583 12.5211C8.19887 11.9913 8.62023 11.5481 9.1351 11.2387C9.64997 10.9292 10.2391 10.7651 10.8398 10.7639C11.0539 10.7654 11.2673 10.7856 11.4779 10.8241C12.2334 10.9742 12.9136 11.3812 13.403 11.976C13.8924 12.5708 14.1608 13.3166 14.1627 14.0869C14.1885 14.525 14.1229 14.9637 13.9701 15.3751H13.91Z" fill="#213947"/>
<path id="Vector_3" d="M31.2958 21.8163L30.9105 21.4551C31.0257 21.5884 31.1504 21.7132 31.2838 21.8283C31.5018 22.0566 31.7351 22.2698 31.9821 22.4664L31.2958 21.8163Z" fill="#1DA0F1"/>
<path id="Vector_4" d="M38.8686 8.35547C37.7352 8.35547 36.6271 8.6916 35.6847 9.32132C34.7422 9.95105 34.0077 10.8461 33.5739 11.8933C33.1402 12.9405 33.0267 14.0928 33.2478 15.2045C33.4689 16.3162 34.0147 17.3373 34.8162 18.1388C35.6177 18.9403 36.6389 19.4861 37.7506 19.7073C38.8622 19.9284 40.0146 19.8149 41.0618 19.3811C42.109 18.9474 43.0041 18.2128 43.6338 17.2704C44.2635 16.3279 44.5996 15.2199 44.5996 14.0864C44.5996 12.5665 43.9958 11.1088 42.921 10.034C41.8463 8.95926 40.3886 8.35547 38.8686 8.35547ZM38.8686 17.4094C38.2114 17.4094 37.5689 17.2145 37.0225 16.8494C36.476 16.4843 36.0501 15.9653 35.7986 15.3581C35.5471 14.7509 35.4813 14.0827 35.6095 13.4381C35.7377 12.7936 36.0542 12.2014 36.5189 11.7367C36.9837 11.272 37.5757 10.9555 38.2203 10.8273C38.8649 10.6991 39.5331 10.7649 40.1403 11.0164C40.7475 11.2679 41.2665 11.6938 41.6316 12.2403C41.9967 12.7867 42.1916 13.4292 42.1916 14.0864C42.1932 14.5244 42.1085 14.9584 41.9424 15.3636C41.7762 15.7688 41.5319 16.1374 41.2233 16.4482C40.9147 16.759 40.548 17.006 40.144 17.175C39.7399 17.3441 39.3066 17.4319 38.8686 17.4335V17.4094Z" fill="#213947"/>
<path id="Vector_5" d="M21.5794 12.666L16.92 8.29556L16.908 8.27148L21.5794 12.666Z" fill="#1DA0F1"/>
<path id="Vector_6" d="M21.5794 12.666L16.92 8.29556L16.908 8.27148L21.5794 12.666Z" fill="#1DA0F1"/>
<path id="Vector_7" d="M31.2952 21.8166C31.1619 21.7014 31.0371 21.5767 30.922 21.4434L31.2952 21.8166Z" fill="#1DA0F1"/>
<path id="Vector_8" d="M21.5193 15.9283C21.3778 16.8189 21.1144 17.6859 20.7367 18.5048L18.8585 16.7831C19.1315 15.9392 19.2697 15.0574 19.2678 14.1704C19.2741 14.0662 19.2741 13.9617 19.2678 13.8574L21.5193 15.9283Z" fill="#1DA0F1"/>
<path id="Vector_9" d="M49.7044 14.3756C49.6185 17.1834 48.4575 19.8509 46.4611 21.8272C44.4647 23.8034 41.7855 24.9373 38.9769 24.9947C36.5167 25.0174 34.1219 24.2022 32.1865 22.683L31.9818 22.5145L31.2955 21.8643L30.9102 21.5031L30.8501 21.4429L21.5794 12.7141L16.9079 8.31952C16.7393 8.13484 16.5583 7.96188 16.3661 7.80182L16.1975 7.65735C15.861 7.38018 15.5027 7.13052 15.1261 6.91085C13.435 5.89506 11.4373 5.51517 9.49143 5.83932C8.11932 6.06026 6.82307 6.61709 5.71826 7.46022C4.61344 8.30336 3.73428 9.40663 3.15906 10.6718C2.58384 11.9369 2.33047 13.3247 2.42141 14.7115C2.51236 16.0983 2.94484 17.4411 3.68036 18.6203C4.41588 19.7995 5.43157 20.7785 6.63704 21.4702C7.84251 22.1618 9.2003 22.5446 10.5895 22.5844C11.9787 22.6243 13.3563 22.32 14.5994 21.6986C15.8425 21.0772 16.9127 20.158 17.7146 19.0229L19.4845 20.6844C18.4401 22.0706 17.0781 23.1857 15.513 23.9358C13.9478 24.6858 12.2254 25.049 10.4907 24.9947C7.72534 24.8745 5.10772 23.7131 3.16281 21.7437C1.21789 19.7742 0.0895436 17.1422 0.00404262 14.3756C-0.0529291 12.2901 0.4933 10.2325 1.57721 8.44989C2.66113 6.6673 4.23661 5.23551 6.11441 4.32648C7.99222 3.41746 10.0925 3.06985 12.1631 3.32539C14.2336 3.58093 16.1864 4.42878 17.7868 5.76709L18.6537 6.59784L28.0929 15.4712L32.6319 19.7333C32.912 20.0632 33.2269 20.3619 33.5711 20.6242C34.9432 21.7153 36.6213 22.3514 38.3719 22.4439C40.1224 22.5364 41.8583 22.0807 43.3377 21.1402C44.8171 20.1998 45.9665 18.8215 46.6257 17.1971C47.285 15.5728 47.4213 13.7833 47.0157 12.0779C46.6101 10.3724 45.6829 8.83582 44.363 7.68215C43.0431 6.52847 41.3963 5.81511 39.6519 5.64135C37.9075 5.46759 36.1523 5.84209 34.6308 6.71273C33.1093 7.58337 31.8971 8.90679 31.1631 10.4987V10.583C31.0525 10.837 30.8825 11.0607 30.6676 11.2355C30.4527 11.4103 30.199 11.531 29.9278 11.5876C29.6566 11.6442 29.3759 11.635 29.109 11.5608C28.8421 11.4865 28.5969 11.3494 28.3939 11.1609L19.0871 2.40796L16.5226 0H32.0299L29.622 2.40796H22.6389L28.3578 7.78977C28.483 7.90543 28.6313 7.9932 28.7929 8.04726C28.9546 8.10132 29.1258 8.12044 29.2954 8.10337C29.465 8.08629 29.629 8.03343 29.7767 7.94824C29.9243 7.86304 30.0521 7.74747 30.1517 7.60918C31.5228 5.74926 33.4526 4.37632 35.6592 3.69083C37.8659 3.00534 40.2338 3.0432 42.4174 3.79886C44.6011 4.55452 46.4859 5.98839 47.7969 7.89118C49.1078 9.79396 49.7762 12.066 49.7044 14.3756Z" fill="#1DA0F1"/>
</g>
</g>
</svg>
