<svg width="32" height="32" viewBox="0 0 32 32" fill="none" xmlns="http://www.w3.org/2000/svg">
<g id="Frame 280">
<g id="Group 5894">
<g id="01">
<mask id="mask0_58_1528" style="mask-type:alpha" maskUnits="userSpaceOnUse" x="4" y="5" width="23" height="24">
<path id="Vector 1" d="M4 12.9784L6.6406 24.0689C7.87287 25.1252 10.5487 27.3433 11.3937 27.7658C12.4499 28.2939 18.2592 27.7658 19.3155 27.7658C20.1604 27.7658 23.8925 24.5971 25.6529 23.0127L26.181 15.619L16.1467 15.0909V10.866V6.11288L15.0905 5.05664H12.4499L7.16872 7.69724L4 12.9784Z" fill="#C4C4C4"/>
</mask>
<g mask="url(#mask0_58_1528)">
<path id="Shape" d="M14.8267 6.90524C15.2642 6.90524 15.6188 7.25991 15.6188 7.69742V16.1473H24.0687C24.4698 16.1473 24.8012 16.4454 24.8537 16.832L24.8609 16.9395C24.8609 22.1896 20.6049 25.9175 15.3548 25.9175C10.1047 25.9175 5.84863 21.6615 5.84863 16.4114C5.84863 11.1613 9.57656 6.90524 14.8267 6.90524ZM17.9954 4.26465C23.2455 4.26465 27.5015 8.52069 27.5015 13.7708C27.5015 14.2083 27.1468 14.563 26.7093 14.563H17.9954C17.5579 14.563 17.2032 14.2083 17.2032 13.7708V5.05683C17.2032 4.61932 17.5579 4.26465 17.9954 4.26465Z" fill="#BCC4C8"/>
</g>
</g>
<g id="02">
<mask id="mask1_58_1528" style="mask-type:alpha" maskUnits="userSpaceOnUse" x="16" y="4" width="12" height="12">
<path id="Vector 1_2" d="M16.1465 7.69683V11.3937C16.1465 13.5061 16.1465 15.0905 16.6747 15.0905H20.8996H27.7652V10.8655L24.0683 4.52812L16.6747 4L16.1465 5.58436V6.11248V6.6406V7.16872V7.69683Z" fill="#C4C4C4"/>
</mask>
<g mask="url(#mask1_58_1528)">
<path id="Shape_2" d="M14.8268 6.90524C15.2643 6.90524 15.619 7.25991 15.619 7.69742V16.1473H24.0689C24.4699 16.1473 24.8014 16.4454 24.8538 16.832L24.861 16.9395C24.861 22.1896 20.605 25.9175 15.3549 25.9175C10.1048 25.9175 5.84875 21.6615 5.84875 16.4114C5.84875 11.1613 9.57668 6.90524 14.8268 6.90524ZM17.9955 4.26465C23.2456 4.26465 27.5016 8.52069 27.5016 13.7708C27.5016 14.2083 27.147 14.563 26.7095 14.563H17.9955C17.558 14.563 17.2033 14.2083 17.2033 13.7708V5.05683C17.2033 4.61932 17.558 4.26465 17.9955 4.26465Z" fill="#D2ECFC"/>
</g>
</g>
</g>
</g>
</svg>
