<svg width="32" height="32" viewBox="0 0 32 32" fill="none" xmlns="http://www.w3.org/2000/svg">
<g id="Frame 282">
<g id="Group 5895">
<path id="Shape" d="M13.1735 5.59961C8.54893 5.59961 4.79999 9.34855 4.79999 13.9731C4.79999 15.2386 5.08126 16.4404 5.58527 17.5177C5.24795 18.8856 4.95578 20.3465 4.82426 21.0262C4.67543 21.7954 5.34409 22.4693 6.11177 22.3326C6.80767 22.2087 8.32037 21.9298 9.7252 21.6057C10.7777 22.0818 11.9457 22.3466 13.1735 22.3466C17.798 22.3466 21.547 18.5977 21.547 13.9731C21.547 9.34855 17.798 5.59961 13.1735 5.59961Z" fill="#BCC4C8"/>
<path id="Shape_2" d="M18.8246 25.696C16.6259 25.696 14.625 24.8485 13.131 23.4624C13.168 23.4628 13.2052 23.463 13.2423 23.463C14.0439 23.463 14.8223 23.3636 15.5658 23.1765C22.8386 20.7146 23.19 14.4948 22.4565 11.6927C22.2574 10.8852 21.9548 10.1185 21.5637 9.40723C24.8431 10.5419 27.1981 13.6572 27.1981 17.3225C27.1981 18.5876 26.917 19.7891 26.4133 20.8661C26.6958 21.9915 26.9818 23.2106 27.1633 23.9959C27.3915 24.9839 26.5214 25.8782 25.5249 25.67C24.7131 25.5003 23.4376 25.2281 22.2722 24.9553C21.2199 25.4313 20.0521 25.696 18.8246 25.696Z" fill="#D2ECFC"/>
</g>
</g>
</svg>
