<svg width="32" height="32" viewBox="0 0 32 32" fill="none" xmlns="http://www.w3.org/2000/svg">
<g id="notifications 1">
<g id="Group 5968">
<path id="Vector" d="M25.2122 20.2653C25.1292 20.1653 25.0477 20.0653 24.9677 19.9688C23.8677 18.6383 23.2022 17.8353 23.2022 14.0688C23.2022 12.1188 22.7357 10.5188 21.8162 9.3188C21.1382 8.4323 20.2217 7.7598 19.0137 7.2628C18.9982 7.25416 18.9843 7.24281 18.9727 7.2293C18.5382 5.7743 17.3492 4.7998 16.0082 4.7998C14.6672 4.7998 13.4787 5.7743 13.0442 7.2278C13.0326 7.24082 13.019 7.2518 13.0037 7.2603C10.1847 8.4208 8.81475 10.6473 8.81475 14.0673C8.81475 17.8353 8.15025 18.6383 7.04925 19.9673C6.96925 20.0638 6.88775 20.1618 6.80475 20.2638C6.59035 20.5224 6.45451 20.8369 6.4133 21.1703C6.3721 21.5036 6.42726 21.8418 6.57225 22.1448C6.88075 22.7948 7.53825 23.1983 8.28875 23.1983H23.7332C24.4802 23.1983 25.1332 22.7953 25.4427 22.1483C25.5884 21.8452 25.644 21.5068 25.6032 21.1731C25.5623 20.8393 25.4267 20.5243 25.2122 20.2653Z" fill="#BCC4C8"/>
<path id="Vector_2" d="M18.0597 26.6322C17.4397 27.0031 16.7308 27.1992 16.0083 27.1998C15.2858 27.1991 14.577 27.003 13.9571 26.6321C13.3371 26.2612 12.829 25.7295 12.4868 25.0933C12.4706 25.0628 12.4627 25.0286 12.4636 24.9941C12.4646 24.9595 12.4746 24.9259 12.4924 24.8963C12.5103 24.8668 12.5355 24.8423 12.5656 24.8254C12.5957 24.8085 12.6297 24.7997 12.6643 24.7998H19.3533C19.3878 24.7998 19.4217 24.8087 19.4517 24.8256C19.4818 24.8426 19.5069 24.867 19.5247 24.8965C19.5425 24.9261 19.5524 24.9597 19.5534 24.9942C19.5544 25.0287 19.5464 25.0628 19.5303 25.0933C19.188 25.7296 18.6798 26.2614 18.0597 26.6322Z" fill="#D2ECFC"/>
</g>
</g>
</svg>
