<svg width="32" height="32" viewBox="0 0 32 32" fill="none" xmlns="http://www.w3.org/2000/svg">
<g id="person 1">
<g id="Group 5967">
<path id="Vector" d="M24.8002 27.1996H7.20025C6.96989 27.2025 6.74175 27.1542 6.53244 27.0579C6.32313 26.9616 6.13791 26.8199 5.99026 26.6431C5.66526 26.2546 5.53426 25.7241 5.63126 25.1876C6.05326 22.8466 7.37025 20.8801 9.44024 19.4996C11.2792 18.2741 13.6087 17.5996 16.0002 17.5996C18.3917 17.5996 20.7212 18.2746 22.5602 19.4996C24.6302 20.8796 25.9471 22.8461 26.3691 25.1871C26.4661 25.7236 26.3351 26.2541 26.0101 26.6426C25.8625 26.8195 25.6773 26.9613 25.468 27.0577C25.2587 27.154 25.0306 27.2025 24.8002 27.1996Z" fill="#BCC4C8"/>
<path id="Vector_2" d="M16.0006 4.7998C17.5006 4.7998 18.8596 5.3783 19.8326 6.42879C20.8176 7.49229 21.2976 8.92378 21.1841 10.4588C20.9586 13.5143 18.6371 15.9997 16.0006 15.9997C13.3641 15.9997 11.0386 13.5138 10.8166 10.4578C10.7046 8.90878 11.1816 7.47429 12.1606 6.41879C13.1291 5.3748 14.4926 4.7998 16.0006 4.7998Z" fill="#D2ECFC"/>
</g>
</g>
</svg>
