<svg width="32" height="32" viewBox="0 0 32 32" fill="none" xmlns="http://www.w3.org/2000/svg">
<g id="receipt 1">
<g id="Group 5969">
<path id="Vector" d="M26.6316 5.62091C26.4549 5.57889 26.269 5.60157 26.1075 5.68484L24.96 6.25791L23.8027 5.67924C23.699 5.62741 23.5847 5.60043 23.4688 5.60043C23.3529 5.60043 23.2386 5.62741 23.1349 5.67924L21.9631 6.25838L20.8067 5.67924C20.7027 5.62703 20.588 5.59984 20.4716 5.59984C20.3553 5.59984 20.2405 5.62703 20.1366 5.67924L18.9867 6.25651L17.8457 5.68064C17.742 5.62807 17.6275 5.60044 17.5112 5.59996C17.3949 5.59947 17.2802 5.62614 17.176 5.67784L16 6.25884L14.8427 5.67878C14.7389 5.62697 14.6244 5.6 14.5083 5.6C14.3923 5.6 14.2778 5.62697 14.174 5.67878L13.0134 6.25791L11.8542 5.67878C11.7047 5.60387 11.5345 5.58127 11.3707 5.61461C11.2069 5.64794 11.059 5.73529 10.9507 5.86264C10.834 6.00174 10.7711 6.17809 10.7734 6.35964V17.5465L10.7757 17.5489H19.7334C20.1294 17.5489 20.5092 17.7062 20.7893 17.9863C21.0693 18.2663 21.2267 18.6462 21.2267 19.0422V23.8932C21.2267 25.3366 22.7699 26.5065 24.2133 26.5065H24.7733C25.4169 26.5065 26.0342 26.2509 26.4892 25.7958C26.9443 25.3407 27.2 24.7235 27.2 24.0799V6.34658C27.2001 6.17946 27.1442 6.01713 27.0411 5.88556C26.9381 5.754 26.7939 5.66081 26.6316 5.62091ZM23.4667 15.3066H17.5167C17.1135 15.3066 16.7654 14.9967 16.7476 14.5935C16.7431 14.4927 16.759 14.3921 16.7944 14.2976C16.8299 14.2032 16.8841 14.1169 16.9538 14.044C17.0234 13.9711 17.1072 13.913 17.1999 13.8734C17.2927 13.8337 17.3925 13.8132 17.4934 13.8132H23.4433C23.8465 13.8132 24.1947 14.1231 24.2124 14.5263C24.2169 14.6271 24.201 14.7277 24.1656 14.8221C24.1302 14.9166 24.076 15.0029 24.0063 15.0758C23.9366 15.1487 23.8528 15.2067 23.7601 15.2464C23.6674 15.2861 23.5675 15.3065 23.4667 15.3066ZM23.4667 11.5732H14.53C14.1268 11.5732 13.7787 11.2634 13.761 10.8602C13.7564 10.7594 13.7724 10.6588 13.8078 10.5643C13.8432 10.4699 13.8974 10.3836 13.9671 10.3107C14.0368 10.2378 14.1205 10.1797 14.2133 10.14C14.306 10.1004 14.4058 10.0799 14.5067 10.0799H23.4433C23.8465 10.0799 24.1947 10.3898 24.2124 10.793C24.2169 10.8937 24.201 10.9944 24.1656 11.0888C24.1302 11.1833 24.076 11.2695 24.0063 11.3425C23.9366 11.4154 23.8528 11.4734 23.7601 11.5131C23.6674 11.5527 23.5675 11.5732 23.4667 11.5732Z" fill="#BCC4C8"/>
<path id="Vector_2" d="M19.7333 23.8934V19.7867C19.7333 19.5887 19.6546 19.3988 19.5146 19.2587C19.3746 19.1187 19.1846 19.04 18.9866 19.04H6.29332C5.89724 19.0413 5.51777 19.1993 5.23791 19.4796C4.95806 19.7599 4.8006 20.1396 4.79999 20.5357C4.79999 22.8947 5.06972 23.8756 5.47479 24.6223C6.16218 25.8902 7.40678 26.5067 9.27998 26.5067H20.745C20.7818 26.5067 20.8179 26.4959 20.8485 26.4755C20.8792 26.4551 20.9031 26.4261 20.9174 26.3921C20.9316 26.3581 20.9354 26.3207 20.9284 26.2845C20.9214 26.2484 20.9039 26.2151 20.878 26.1889C20.4365 25.746 19.7333 25.1534 19.7333 23.8934Z" fill="#D2ECFC"/>
</g>
</g>
</svg>
