<svg width="32" height="32" viewBox="0 0 32 32" fill="none" xmlns="http://www.w3.org/2000/svg">
<g id="sunny 1">
<g id="Group 5970">
<path id="Vector" d="M16 9.2798C15.7159 9.2798 15.4434 9.16694 15.2425 8.96603C15.0416 8.76512 14.9287 8.49263 14.9287 8.2085V5.87111C14.9287 5.58698 15.0416 5.31449 15.2425 5.11358C15.4434 4.91267 15.7159 4.7998 16 4.7998C16.2841 4.7998 16.5566 4.91267 16.7575 5.11358C16.9584 5.31449 17.0713 5.58698 17.0713 5.87111V8.2085C17.0713 8.49263 16.9584 8.76512 16.7575 8.96603C16.5566 9.16694 16.2841 9.2798 16 9.2798ZM16 27.1998C15.7159 27.1998 15.4434 27.0869 15.2425 26.886C15.0416 26.6851 14.9287 26.4126 14.9287 26.1285V23.7911C14.9287 23.507 15.0416 23.2345 15.2425 23.0336C15.4434 22.8327 15.7159 22.7198 16 22.7198C16.2841 22.7198 16.5566 22.8327 16.7575 23.0336C16.9584 23.2345 17.0713 23.507 17.0713 23.7911V26.1285C17.0713 26.4126 16.9584 26.6851 16.7575 26.886C16.5566 27.0869 16.2841 27.1998 16 27.1998ZM21.5094 11.5617C21.2976 11.5617 21.0905 11.4988 20.9144 11.3811C20.7382 11.2635 20.6009 11.0962 20.5198 10.9005C20.4388 10.7048 20.4175 10.4894 20.4588 10.2817C20.5 10.0739 20.602 9.88301 20.7517 9.73316L22.4044 8.08043C22.6062 7.88389 22.8773 7.77473 23.159 7.77659C23.4407 7.77844 23.7103 7.89116 23.9095 8.09034C24.1086 8.28952 24.2214 8.55914 24.2232 8.84081C24.2251 9.12249 24.1159 9.39357 23.9194 9.59535L22.2666 11.2481C22.1673 11.3476 22.0493 11.4266 21.9193 11.4804C21.7894 11.5342 21.6501 11.5619 21.5094 11.5617ZM8.83783 24.2333C8.62594 24.2332 8.41881 24.1704 8.24264 24.0526C8.06648 23.9349 7.92919 23.7675 7.84813 23.5718C7.76708 23.376 7.7459 23.1606 7.78729 22.9527C7.82867 22.7449 7.93075 22.5541 8.08061 22.4043L9.73334 20.7515C9.83233 20.6499 9.95052 20.5689 10.0811 20.5134C10.2116 20.4578 10.3519 20.4287 10.4937 20.4277C10.6356 20.4268 10.7762 20.454 10.9075 20.5079C11.0387 20.5618 11.158 20.6412 11.2583 20.7415C11.3586 20.8418 11.438 20.9611 11.4919 21.0923C11.5457 21.2236 11.573 21.3642 11.5721 21.5061C11.5711 21.6479 11.542 21.7882 11.4864 21.9187C11.4309 22.0493 11.3499 22.1675 11.2483 22.2664L9.59554 23.9192C9.49616 24.0189 9.37806 24.0979 9.24803 24.1518C9.11799 24.2057 8.97859 24.2334 8.83783 24.2333ZM26.1287 17.0711H23.7913C23.5072 17.0711 23.2347 16.9582 23.0338 16.7573C22.8329 16.5564 22.72 16.2839 22.72 15.9998C22.72 15.7157 22.8329 15.4432 23.0338 15.2423C23.2347 15.0414 23.5072 14.9285 23.7913 14.9285H26.1287C26.4128 14.9285 26.6853 15.0414 26.8862 15.2423C27.0871 15.4432 27.2 15.7157 27.2 15.9998C27.2 16.2839 27.0871 16.5564 26.8862 16.7573C26.6853 16.9582 26.4128 17.0711 26.1287 17.0711ZM8.20868 17.0711H5.87129C5.58716 17.0711 5.31467 16.9582 5.11377 16.7573C4.91286 16.5564 4.79999 16.2839 4.79999 15.9998C4.79999 15.7157 4.91286 15.4432 5.11377 15.2423C5.31467 15.0414 5.58716 14.9285 5.87129 14.9285H8.20868C8.49281 14.9285 8.7653 15.0414 8.96621 15.2423C9.16712 15.4432 9.27999 15.7157 9.27999 15.9998C9.27999 16.2839 9.16712 16.5564 8.96621 16.7573C8.7653 16.9582 8.49281 17.0711 8.20868 17.0711ZM23.1621 24.2333C23.0214 24.2334 22.882 24.2057 22.752 24.1518C22.6219 24.0979 22.5038 24.0189 22.4044 23.9192L20.7517 22.2664C20.5552 22.0647 20.446 21.7936 20.4479 21.5119C20.4497 21.2302 20.5624 20.9606 20.7616 20.7614C20.9608 20.5623 21.2304 20.4495 21.5121 20.4477C21.7938 20.4458 22.0648 20.555 22.2666 20.7515L23.9194 22.4043C24.0692 22.5541 24.1713 22.7449 24.2127 22.9527C24.2541 23.1606 24.2329 23.376 24.1518 23.5718C24.0708 23.7675 23.9335 23.9349 23.7573 24.0526C23.5812 24.1704 23.374 24.2332 23.1621 24.2333ZM10.4906 11.5617C10.3499 11.562 10.2106 11.5344 10.0806 11.4806C9.95065 11.4267 9.83263 11.3477 9.73334 11.2481L8.08061 9.59535C7.88407 9.39357 7.77492 9.12249 7.77677 8.84081C7.77863 8.55914 7.89134 8.28952 8.09053 8.09034C8.28971 7.89116 8.55932 7.77844 8.841 7.77659C9.12267 7.77473 9.39375 7.88389 9.59554 8.08043L11.2483 9.73316C11.398 9.88301 11.4999 10.0739 11.5412 10.2817C11.5825 10.4894 11.5612 10.7048 11.4801 10.9005C11.399 11.0962 11.2617 11.2635 11.0856 11.3811C10.9095 11.4988 10.7024 11.5617 10.4906 11.5617Z" fill="#1DA0F1"/>
<path id="Vector_2" d="M13.2405 20.13C14.0573 20.6758 15.0176 20.9671 16 20.9671C17.3168 20.9656 18.5793 20.4418 19.5104 19.5106C20.4416 18.5795 20.9654 17.317 20.9669 16.0002C20.9669 15.0178 20.6756 14.0575 20.1299 13.2407C19.5841 12.4239 18.8083 11.7872 17.9008 11.4113C16.9932 11.0354 15.9945 10.937 15.031 11.1286C14.0675 11.3203 13.1825 11.7934 12.4878 12.488C11.7932 13.1826 11.3201 14.0677 11.1285 15.0312C10.9368 15.9947 11.0352 16.9933 11.4111 17.9009C11.787 18.8085 12.4237 19.5843 13.2405 20.13Z" fill="#213947"/>
</g>
</g>
</svg>
